<svg id="Слой_1" data-name="Слой 1" xmlns="http://www.w3.org/2000/svg" viewBox="0 0 155.91 96">
    <defs>
        <style>
            .cls-1,.cls-7{fill:none;}.cls-2{fill:#fff;}.cls-3{fill:#44b459;}.cls-4{fill:#1c603e;}.cls-5{fill:#80c251;}.cls-6{clip-path:url(#clip-path);}.cls-7{stroke:#fff;stroke-miterlimit:10;stroke-width:2px;}
        </style>
        <clipPath id="clip-path">
            <rect class="cls-1" x="61.14" y="18.95" width="34.33" height="25.86"/>
        </clipPath>
    </defs>
    <title>logo</title>
    <path class="cls-2"
          d="M5.83,86.94c-1,0-2.27-.09-3.07-.15v8.63a.58.58,0,0,1-.55.61H.55A.59.59,0,0,1,0,95.41V74a.75.75,0,0,1,.74-.77A49.37,49.37,0,0,1,5.83,73c5,0,8.6,1.72,8.6,6.66v.4C14.43,85.19,10.81,86.94,5.83,86.94Zm5.8-7.28c0-3.1-1.84-4.3-5.8-4.3-1,0-2.33.06-3.07.12v9c.71,0,2.27.12,3.07.12,4.21,0,5.8-1.35,5.8-4.54Z"/>
    <path class="cls-2"
          d="M31.94,96H30.13a.56.56,0,0,1-.52-.46l-2-7.06h-8l-2,7.06a.62.62,0,0,1-.55.46H15.32a.49.49,0,0,1-.52-.49.52.52,0,0,1,0-.21l5.68-20A3,3,0,0,1,23.65,73a3,3,0,0,1,3.1,2.3l5.68,20a.52.52,0,0,1,0,.21A.48.48,0,0,1,31.94,96ZM24.23,76c-.09-.34-.28-.55-.58-.55s-.52.21-.61.55l-2.79,10.1H27Z"/>
    <path class="cls-2"
          d="M50.94,96H49c-.37,0-.55,0-.8-.4l-5.5-9.15h-.8c-1,0-1.75,0-3.38-.09v9A.58.58,0,0,1,38,96H36.3a.59.59,0,0,1-.55-.61V73.92c0-.43.18-.61.74-.68,1.32-.15,3.62-.25,5.4-.25,4.85,0,8.6,1.63,8.6,6.6v.21A6,6,0,0,1,45.66,86l5.59,9.33a.5.5,0,0,1,.09.28A.39.39,0,0,1,50.94,96ZM47.72,79.6c0-3.07-2-4.08-5.83-4.08-1,0-2.64,0-3.38.09V84c1.35,0,2.67.06,3.38.06,3.78,0,5.83-1,5.83-4.27Z"/>
    <path class="cls-2"
          d="M67.68,75.61h-6V95.41a.58.58,0,0,1-.55.61H59.45a.59.59,0,0,1-.55-.61V75.61h-6c-.34,0-.61-.15-.61-.49V73.76a.59.59,0,0,1,.61-.55H67.68a.54.54,0,0,1,.58.55v1.35C68.27,75.42,68,75.61,67.68,75.61Z"/>
    <path class="cls-2"
          d="M86.11,74,81.35,84.67a3.63,3.63,0,0,1-1.66,2v8.72a.61.61,0,0,1-.55.61H77.45a.61.61,0,0,1-.55-.61V86.69c-.55-.21-1.11-.8-1.66-2L70.51,74a.8.8,0,0,1-.09-.34.47.47,0,0,1,.52-.43h1.87a.71.71,0,0,1,.55.43l4.24,10c.31.71.52.8.71.8s.4-.09.71-.8l4.27-10a.63.63,0,0,1,.52-.43h1.87a.47.47,0,0,1,.52.43A.8.8,0,0,1,86.11,74Z"/>
    <path class="cls-3"
          d="M104.28,96.3a38.94,38.94,0,0,1-5.62-.37c-1.23-.22-1.69-.61-1.69-2V75.27c0-1.38.43-1.81,1.63-2a47.52,47.52,0,0,1,5.5-.34c5.8,0,9.7,1.54,9.7,6.42v.55a4.86,4.86,0,0,1-2.58,4.51A4.9,4.9,0,0,1,114,89v.46C114,94.83,109.6,96.3,104.28,96.3Zm4.45-16.61c0-1.69-1.08-2.46-4.24-2.46-.49,0-1.9,0-2.33,0v5.31h3.44c2.43,0,3.13-1.11,3.13-2.43Zm.12,9.27c0-1.47-.8-2.73-3.25-2.73h-3.44V92l2.52,0c3.16,0,4.18-1,4.18-2.7Z"/>
    <path class="cls-3"
          d="M126.09,96.3c-5.07,0-9.09-2.73-9.09-9.86V82.79c0-7.12,4-9.86,9.09-9.86s9.09,2.73,9.09,9.86v3.65C135.18,93.57,131.15,96.3,126.09,96.3Zm3.81-13.51c0-3.69-1.23-5.25-3.81-5.25s-3.78,1.57-3.78,5.25v3.65c0,3.68,1.2,5.25,3.78,5.25s3.81-1.57,3.81-5.25Z"/>
    <path class="cls-3"
          d="M155.51,96h-4.88a.81.81,0,0,1-.8-.46l-4-6.48-3.59,6.33c-.22.37-.43.61-.77.61h-4.54a.41.41,0,0,1-.46-.4.56.56,0,0,1,.06-.21l6.42-11.09-6.48-10.53a.42.42,0,0,1-.06-.18.44.44,0,0,1,.46-.4h4.94c.34,0,.58.31.77.58l3.81,6.2,3.44-6.2a1,1,0,0,1,.77-.58h4.54a.44.44,0,0,1,.46.4.42.42,0,0,1-.06.18l-6.33,10.84,6.6,10.78a.69.69,0,0,1,.09.31C155.91,95.9,155.75,96,155.51,96Z"/>
    <polygon class="cls-4" points="104.64 46.08 77.95 61.49 77.88 30.66 104.64 15.27 104.64 46.08"/>
    <polygon class="cls-3" points="104.64 15.27 77.88 30.66 51.27 15.27 77.95 -0.13 104.64 15.27"/>
    <polygon class="cls-5" points="77.95 61.49 51.27 46.08 51.27 15.27 77.88 30.66 77.95 61.49"/>
    <g class="cls-6">
        <line class="cls-7" x1="96.53" y1="74.37" x2="61.25" y2="109.66"/>
        <line class="cls-7" x1="96.53" y1="66.37" x2="61.25" y2="101.66"/>
        <line class="cls-7" x1="96.53" y1="58.37" x2="61.25" y2="93.66"/>
        <line class="cls-7" x1="96.53" y1="50.37" x2="61.25" y2="85.66"/>
        <line class="cls-7" x1="96.53" y1="42.37" x2="61.25" y2="77.66"/>
        <line class="cls-7" x1="96.53" y1="34.37" x2="61.25" y2="69.66"/>
        <line class="cls-7" x1="96.53" y1="26.37" x2="61.25" y2="61.66"/>
        <line class="cls-7" x1="96.53" y1="18.37" x2="61.25" y2="53.66"/>
        <line class="cls-7" x1="96.53" y1="10.37" x2="61.25" y2="45.66"/>
        <line class="cls-7" x1="96.53" y1="2.37" x2="61.25" y2="37.66"/>
        <line class="cls-7" x1="96.53" y1="-5.63" x2="61.25" y2="29.66"/>
    </g>
</svg>