<svg id="Слой_1" data-name="Слой 1" xmlns="http://www.w3.org/2000/svg" viewBox="0 0 164.87 45.14">
    <defs>
        <style>.cls-1{fill:#1e0e00;}.cls-2{fill:#eb4941;}.cls-3{fill:#8e362f;}.cls-4{fill:#f4873d;}.cls-5{fill:#fff;}
        </style>
    </defs>
    <title>logo-new</title>
    <path class="cls-1"
          d="M932.5,538.11c-.72,0-1.66-.07-2.25-.11v6.32a.43.43,0,0,1-.4.45h-1.21a.43.43,0,0,1-.4-.45V528.64a.55.55,0,0,1,.54-.56,36.17,36.17,0,0,1,3.73-.18c3.64,0,6.3,1.26,6.3,4.88v.29C938.79,536.83,936.14,538.11,932.5,538.11Zm4.25-5.33c0-2.27-1.35-3.15-4.25-3.15-.7,0-1.71,0-2.25.09v6.59c.52,0,1.66.09,2.25.09,3.08,0,4.25-1,4.25-3.33Z"
          transform="translate(-877.57 -516.57)"/>
    <path class="cls-1"
          d="M951.62,544.77h-1.33a.41.41,0,0,1-.38-.34l-1.46-5.17h-5.83l-1.44,5.17a.45.45,0,0,1-.4.34h-1.33a.36.36,0,0,1-.38-.36.38.38,0,0,1,0-.16l4.16-14.65a2.21,2.21,0,0,1,2.29-1.71,2.18,2.18,0,0,1,2.27,1.69L952,544.25a.38.38,0,0,1,0,.16A.35.35,0,0,1,951.62,544.77ZM946,530.08c-.07-.25-.2-.41-.43-.41s-.38.16-.45.41l-2,7.4h5Z"
          transform="translate(-877.57 -516.57)"/>
    <path class="cls-1"
          d="M965.54,544.77H964.1c-.27,0-.4,0-.58-.29l-4-6.7h-.58c-.74,0-1.28,0-2.47-.07v6.61a.43.43,0,0,1-.4.45h-1.21a.43.43,0,0,1-.4-.45V528.57c0-.32.14-.45.54-.5,1-.11,2.65-.18,4-.18,3.55,0,6.3,1.19,6.3,4.84v.16a4.43,4.43,0,0,1-3.53,4.54l4.09,6.84a.36.36,0,0,1,.07.2A.28.28,0,0,1,965.54,544.77Zm-2.36-12c0-2.25-1.46-3-4.27-3-.7,0-1.93,0-2.47.07V536l2.47,0c2.77,0,4.27-.7,4.27-3.13Z"
          transform="translate(-877.57 -516.57)"/>
    <path class="cls-1"
          d="M977.81,529.81h-4.39v14.51a.43.43,0,0,1-.4.45h-1.24a.43.43,0,0,1-.41-.45V529.81H967c-.25,0-.45-.11-.45-.36v-1a.43.43,0,0,1,.45-.41h10.82a.4.4,0,0,1,.43.41v1C978.23,529.67,978.05,529.81,977.81,529.81Z"
          transform="translate(-877.57 -516.57)"/>
    <path class="cls-1"
          d="M991.3,528.62l-3.49,7.83a2.66,2.66,0,0,1-1.22,1.48v6.39a.44.44,0,0,1-.4.45H985a.44.44,0,0,1-.41-.45v-6.39c-.4-.16-.81-.58-1.21-1.48l-3.46-7.83a.59.59,0,0,1-.07-.25.34.34,0,0,1,.38-.32h1.37a.52.52,0,0,1,.41.32l3.1,7.29c.22.52.38.58.52.58s.29-.07.52-.58l3.13-7.29a.46.46,0,0,1,.38-.32H991a.34.34,0,0,1,.38.32A.59.59,0,0,1,991.3,528.62Z"
          transform="translate(-877.57 -516.57)"/>
    <path class="cls-2"
          d="M1004.62,545a28.51,28.51,0,0,1-4.12-.27c-.9-.16-1.24-.45-1.24-1.46V529.56c0-1,.31-1.33,1.19-1.46a34.85,34.85,0,0,1,4-.25c4.25,0,7.11,1.12,7.11,4.7V533a3.56,3.56,0,0,1-1.89,3.31,3.59,3.59,0,0,1,2,3.33v.34C1011.71,543.89,1008.51,545,1004.62,545Zm3.26-12.17c0-1.24-.79-1.8-3.1-1.8-.36,0-1.39,0-1.71,0v3.89h2.52c1.78,0,2.29-.81,2.29-1.78Zm.09,6.79c0-1.08-.58-2-2.38-2h-2.52v4.21l1.84,0c2.32,0,3.06-.72,3.06-2Z"
          transform="translate(-877.57 -516.57)"/>
    <path class="cls-2"
          d="M1020.59,545c-3.71,0-6.66-2-6.66-7.22v-2.68c0-5.22,2.95-7.22,6.66-7.22s6.66,2,6.66,7.22v2.68C1027.25,543,1024.31,545,1020.59,545Zm2.79-9.9c0-2.7-.9-3.85-2.79-3.85s-2.77,1.15-2.77,3.85v2.68c0,2.7.88,3.85,2.77,3.85s2.79-1.15,2.79-3.85Z"
          transform="translate(-877.57 -516.57)"/>
    <path class="cls-2"
          d="M1042.15,544.77h-3.58a.59.59,0,0,1-.58-.34l-2.92-4.75-2.63,4.63c-.16.27-.32.45-.56.45h-3.33a.3.3,0,0,1-.34-.29.42.42,0,0,1,0-.16l4.7-8.12-4.75-7.72a.32.32,0,0,1,0-.14.32.32,0,0,1,.34-.29h3.62c.25,0,.43.23.56.43l2.79,4.54,2.52-4.54a.73.73,0,0,1,.56-.43h3.33a.32.32,0,0,1,.34.29.32.32,0,0,1,0,.14l-4.63,7.94,4.84,7.9a.5.5,0,0,1,.07.22C1042.44,544.68,1042.33,544.77,1042.15,544.77Z"
          transform="translate(-877.57 -516.57)"/>
    <path class="cls-3"
          d="M958,551.66a1.14,1.14,0,0,1,1.3,1.11,1.12,1.12,0,0,1-1.21,1.12h-1.55a.1.1,0,0,0-.09.11v1.69c0,.08,0,.08-.07.08h-.3a.06.06,0,0,1-.07-.07v-3.92c0-.09,0-.12.1-.12Zm0,1.85a.79.79,0,0,0,.88-.74A.77.77,0,0,0,958,552h-1.49a.08.08,0,0,0-.07.08v1.3a.1.1,0,0,0,.09.1Z"
          transform="translate(-877.57 -516.57)"/>
    <path class="cls-3"
          d="M961.13,551.72s0-.06,0-.06h.34s0,0,0,.06v1.71s0,.06.05.06h2.86s0,0,0-.07v-1.7c0-.05,0-.07.06-.07h.31s.05,0,.05.07v4a.05.05,0,0,1-.05.06h-.32s0,0,0-.07V554s0-.07,0-.07H961.6c-.05,0-.05,0-.05.06v1.74a.05.05,0,0,1-.06.06h-.3s-.06,0-.06-.06Z"
          transform="translate(-877.57 -516.57)"/>
    <path class="cls-3"
          d="M971.39,553.7a2.26,2.26,0,1,1-2.26-2.16A2.21,2.21,0,0,1,971.39,553.7Zm-4.08,0a1.82,1.82,0,1,0,1.82-1.73A1.77,1.77,0,0,0,967.31,553.7Z"
          transform="translate(-877.57 -516.57)"/>
    <path class="cls-3"
          d="M974.08,552.11s0-.07-.05-.07h-1c-.05,0-.05,0-.05-.06v-.28s0,0,0,0h2.54s.05,0,.05,0v.3s0,0-.06,0h-1c-.05,0-.05,0-.05.07v3.59c0,.07,0,.07-.05.07h-.32s-.06,0-.06-.07Z"
          transform="translate(-877.57 -516.57)"/>
    <path class="cls-3"
          d="M981.72,553.7a2.26,2.26,0,1,1-2.26-2.16A2.21,2.21,0,0,1,981.72,553.7Zm-4.08,0a1.82,1.82,0,1,0,1.82-1.73A1.77,1.77,0,0,0,977.65,553.7Z"
          transform="translate(-877.57 -516.57)"/>
    <path class="cls-3"
          d="M986.62,551.7a0,0,0,0,1,0,0h1.92c.84,0,1.28.47,1.3,1a1,1,0,0,1-.38.82s0,0,0,.06a1.1,1.1,0,0,1,.66,1,1.21,1.21,0,0,1-1.29,1.25h-2.15c-.05,0-.09,0-.09-.08Zm.42,1.61a.06.06,0,0,0,.05.06h1.57a.7.7,0,0,0,.74-.67c0-.4-.27-.66-.83-.66h-1.5s0,0,0,.05Zm0,2a.06.06,0,0,0,.06.06h1.76a.79.79,0,0,0,.82-.82.78.78,0,0,0-.82-.8H987.1a.05.05,0,0,0-.05.05Z"
          transform="translate(-877.57 -516.57)"/>
    <path class="cls-3"
          d="M996.3,553.7a2.26,2.26,0,1,1-2.26-2.16A2.21,2.21,0,0,1,996.3,553.7Zm-4.08,0A1.82,1.82,0,1,0,994,552,1.77,1.77,0,0,0,992.22,553.7Z"
          transform="translate(-877.57 -516.57)"/>
    <path class="cls-3"
          d="M1002.43,553.7a2.26,2.26,0,1,1-2.26-2.16A2.21,2.21,0,0,1,1002.43,553.7Zm-4.08,0a1.82,1.82,0,1,0,1.82-1.73A1.77,1.77,0,0,0,998.35,553.7Z"
          transform="translate(-877.57 -516.57)"/>
    <path class="cls-3"
          d="M1005.12,552.11s0-.07-.05-.07h-1c-.05,0-.05,0-.05-.06v-.28s0,0,0,0h2.54s.05,0,.05,0v.3s0,0-.06,0h-1c-.05,0-.05,0-.05.07v3.59c0,.07,0,.07-.05.07h-.32s-.06,0-.06-.07Z"
          transform="translate(-877.57 -516.57)"/>
    <path class="cls-3"
          d="M1008.56,551.72s0-.06,0-.06h.34s0,0,0,.06v1.71s0,.06.05.06h2.86s0,0,0-.07v-1.7c0-.05,0-.07.06-.07h.31s.05,0,.05.07v4a.05.05,0,0,1-.05.06H1012s0,0,0-.07V554s0-.07,0-.07H1009c-.05,0-.05,0-.05.06v1.74a.05.05,0,0,1-.06.06h-.3s-.06,0-.06-.06Z"
          transform="translate(-877.57 -516.57)"/>
    <path class="cls-4"
          d="M897.12,546.6v-1.26h-6.93a6.81,6.81,0,0,1,.46-.91q.17-.29.37-.56a7,7,0,0,1,1.61-1.54,6.81,6.81,0,0,1,2.15-1,2.18,2.18,0,0,0,1.73.85,2.15,2.15,0,0,0,.62-.1v-2.15a2.9,2.9,0,0,1-3.52-2.83l-6.67-3.85v9.49h0v3.85h10.19Z"
          transform="translate(-877.57 -516.57)"/>
    <polygon class="cls-4"
             points="13.79 35.9 8.07 35.9 8.06 35.9 8.06 32.63 8.06 31.98 8.06 31.33 8.06 31.22 8.06 30.03 8.07 30.03 8.07 28.64 8.07 26.1 8.07 15.95 0 11.29 0 33.86 19.55 45.14 19.55 35.9 13.79 35.9"/>
    <path class="cls-2"
          d="M897.12,516.57l-19.55,11.29,8.07,4.66v-3.43h21.72v4.14l3.12-1.8-1.85-.47v-1.3l3.42.87,4.63-2.67h0Zm1.82,11.26H896.4l-4.08-1-.27,1h-1.3l.66-2.58,10.08,2.58Z"
          transform="translate(-877.57 -516.57)"/>
    <path class="cls-2"
          d="M893.6,537.11a2.9,2.9,0,0,1,5.81,0,2.87,2.87,0,0,1-.12.79l6.79-3.92v-3.62H886.93v2.91l6.67,3.85Z"
          transform="translate(-877.57 -516.57)"/>
    <polygon class="cls-3"
             points="34.87 14.06 34.87 14.06 34.65 14.93 34.64 14.98 31.05 28.99 31.05 28.99 31.05 28.99 31.05 26.45 31.05 23.9 33.34 14.97 32.9 14.86 29.79 16.66 29.79 23.74 29.79 26.29 29.79 28.83 29.79 30.03 29.8 30.03 29.8 31.35 29.8 32.14 29.8 33.89 29.8 35.9 29.79 35.9 29.28 35.9 25.9 35.9 24.07 35.9 23.36 35.9 20.81 35.9 19.55 35.9 19.55 45.14 39.09 33.86 39.09 11.29 34.47 13.96 34.87 14.06"/>
    <path class="cls-3"
          d="M898.53,539.19a2.9,2.9,0,0,1-1.41.75v2.15a2.19,2.19,0,0,0,1.11-.75,6.85,6.85,0,0,1,4.38,3.54c.07.15.15.3.21.45h-5.7v1.26h9V534l-6.79,3.92A2.9,2.9,0,0,1,898.53,539.19Z"
          transform="translate(-877.57 -516.57)"/>
    <polygon class="cls-5"
             points="13.18 11.26 13.83 11.26 14.48 11.26 14.74 10.21 18.82 11.26 21.37 11.26 23.91 11.26 13.84 8.68 13.18 11.26"/>
    <polygon class="cls-5"
             points="31.05 23.9 31.05 26.45 31.05 28.99 31.05 28.99 31.05 28.99 34.64 14.98 34.65 14.93 34.87 14.06 34.87 14.06 34.47 13.96 31.05 13.08 31.05 13.73 31.05 14.39 32.9 14.86 33.34 14.97 31.05 23.9"/>
    <path class="cls-5"
          d="M901.83,545.34h1c-.06-.15-.13-.3-.21-.45a6.85,6.85,0,0,0-4.38-3.54,2.19,2.19,0,0,1-1.11.75,2.15,2.15,0,0,1-.62.1,2.18,2.18,0,0,1-1.73-.85,6.81,6.81,0,0,0-2.78,1.47,6.88,6.88,0,0,0-1,1.05q-.2.27-.37.56a6.81,6.81,0,0,0-.46.91h11.64Z"
          transform="translate(-877.57 -516.57)"/>
    <path class="cls-5" d="M899.29,537.89a2.87,2.87,0,0,0,.12-.79,2.9,2.9,0,0,0-5.81,0h0a2.89,2.89,0,0,0,5.69.78Z"
          transform="translate(-877.57 -516.57)"/>
    <path class="cls-5"
          d="M885.65,545.22v1.38h0v5.87h21.73V546.6h0V529.09H885.65v16.13Zm1.28-1.74v-.73h0V530.35h19.15V546.6H886.93Z"
          transform="translate(-877.57 -516.57)"/>
</svg>