<svg id="Слой_1" data-name="Слой 1" xmlns="http://www.w3.org/2000/svg" viewBox="0 0 155.91 118.57">
    <defs>
        <style>
            .cls-1,.cls-7{fill:none;}.cls-2{fill:#1e0e00;}.cls-3{fill:#44b459;}.cls-4{fill:#1c603e;}.cls-5{fill:#80c251;}.cls-6{clip-path:url(#clip-path);}.cls-7{stroke:#fff;stroke-miterlimit:10;stroke-width:2px;}
        </style>
        <clipPath id="clip-path">
            <rect class="cls-1" x="60.14" y="25.29" width="34.33" height="25.86"/>
        </clipPath>
    </defs>
    <title>pb2</title>
    <path class="cls-2"
          d="M5.83,93.27c-1,0-2.27-.09-3.07-.15v8.63a.58.58,0,0,1-.55.61H.55a.59.59,0,0,1-.55-.61V80.34a.75.75,0,0,1,.74-.77,49.37,49.37,0,0,1,5.1-.25c5,0,8.6,1.72,8.6,6.66v.4C14.43,91.52,10.81,93.27,5.83,93.27ZM11.64,86c0-3.1-1.84-4.3-5.8-4.3-1,0-2.33.06-3.07.12v9c.71,0,2.27.12,3.07.12,4.21,0,5.8-1.35,5.8-4.54Z"/>
    <path class="cls-2"
          d="M31.94,102.36H30.13a.56.56,0,0,1-.52-.46l-2-7.06h-8l-2,7.06a.62.62,0,0,1-.55.46H15.32a.49.49,0,0,1-.52-.49.52.52,0,0,1,0-.21l5.68-20a3,3,0,0,1,3.13-2.33,3,3,0,0,1,3.1,2.3l5.68,20a.52.52,0,0,1,0,.21A.48.48,0,0,1,31.94,102.36ZM24.23,82.31c-.09-.34-.28-.55-.58-.55s-.52.21-.61.55l-2.79,10.1H27Z"/>
    <path class="cls-2"
          d="M50.94,102.36H49c-.37,0-.55,0-.8-.4l-5.5-9.15h-.8c-1,0-1.75,0-3.38-.09v9a.58.58,0,0,1-.55.61H36.3a.59.59,0,0,1-.55-.61V80.25c0-.43.18-.61.74-.68,1.32-.15,3.62-.25,5.4-.25,4.85,0,8.6,1.63,8.6,6.6v.21a6,6,0,0,1-4.82,6.2l5.59,9.33a.5.5,0,0,1,.09.28A.39.39,0,0,1,50.94,102.36ZM47.72,85.93c0-3.07-2-4.08-5.83-4.08-1,0-2.64,0-3.38.09v8.41c1.35,0,2.67.06,3.38.06,3.78,0,5.83-1,5.83-4.27Z"/>
    <path class="cls-2"
          d="M67.68,81.94h-6v19.81a.58.58,0,0,1-.55.61H59.45a.59.59,0,0,1-.55-.61V81.94h-6c-.34,0-.61-.15-.61-.49V80.1a.59.59,0,0,1,.61-.55H67.68a.54.54,0,0,1,.58.55v1.35C68.27,81.76,68,81.94,67.68,81.94Z"/>
    <path class="cls-2"
          d="M86.11,80.31,81.35,91a3.63,3.63,0,0,1-1.66,2v8.72a.61.61,0,0,1-.55.61H77.45a.61.61,0,0,1-.55-.61V93c-.55-.21-1.11-.8-1.66-2L70.51,80.31a.8.8,0,0,1-.09-.34.47.47,0,0,1,.52-.43h1.87a.71.71,0,0,1,.55.43l4.24,10c.31.71.52.8.71.8s.4-.09.71-.8l4.27-10a.63.63,0,0,1,.52-.43h1.87a.47.47,0,0,1,.52.43A.8.8,0,0,1,86.11,80.31Z"/>
    <path class="cls-3"
          d="M104.28,102.64a38.94,38.94,0,0,1-5.62-.37c-1.23-.22-1.69-.61-1.69-2V81.6c0-1.38.43-1.81,1.63-2a47.52,47.52,0,0,1,5.5-.34c5.8,0,9.7,1.54,9.7,6.42v.55a4.86,4.86,0,0,1-2.58,4.51A4.9,4.9,0,0,1,114,95.3v.46C114,101.16,109.6,102.64,104.28,102.64ZM108.74,86c0-1.69-1.08-2.46-4.24-2.46-.49,0-1.9,0-2.33,0v5.31h3.44c2.43,0,3.13-1.11,3.13-2.43Zm.12,9.27c0-1.47-.8-2.73-3.25-2.73h-3.44v5.74l2.52,0c3.16,0,4.18-1,4.18-2.7Z"/>
    <path class="cls-3"
          d="M126.09,102.64c-5.07,0-9.09-2.73-9.09-9.86V89.13c0-7.12,4-9.86,9.09-9.86s9.09,2.73,9.09,9.86v3.65C135.18,99.91,131.15,102.64,126.09,102.64Zm3.81-13.51c0-3.69-1.23-5.25-3.81-5.25s-3.78,1.57-3.78,5.25v3.65c0,3.68,1.2,5.25,3.78,5.25s3.81-1.57,3.81-5.25Z"/>
    <path class="cls-3"
          d="M155.51,102.36h-4.88a.81.81,0,0,1-.8-.46l-4-6.48-3.59,6.33c-.22.37-.43.61-.77.61h-4.54a.41.41,0,0,1-.46-.4.56.56,0,0,1,.06-.21l6.42-11.09-6.48-10.53a.42.42,0,0,1-.06-.18.44.44,0,0,1,.46-.4h4.94c.34,0,.58.31.77.58l3.81,6.2,3.44-6.2a1,1,0,0,1,.77-.58h4.54a.44.44,0,0,1,.46.4.42.42,0,0,1-.06.18L149.21,91l6.6,10.78a.69.69,0,0,1,.09.31C155.91,102.24,155.75,102.36,155.51,102.36Z"/>
    <path class="cls-4"
          d="M54,116.47l-.39.18a3.87,3.87,0,0,1-.46.17,4.67,4.67,0,0,1-.52.13,3.33,3.33,0,0,1-.62.05,3.52,3.52,0,0,1-1.15-.18,2.35,2.35,0,0,1-.9-.56,2.54,2.54,0,0,1-.59-.94,3.84,3.84,0,0,1-.21-1.33,3.78,3.78,0,0,1,.2-1.29,2.61,2.61,0,0,1,.59-1,2.45,2.45,0,0,1,.9-.58,3.27,3.27,0,0,1,1.17-.2,4,4,0,0,1,.94.11,5,5,0,0,1,1,.4v.92H54a3.45,3.45,0,0,0-1-.59,2.77,2.77,0,0,0-1-.18,2.11,2.11,0,0,0-.79.14,1.74,1.74,0,0,0-.63.44,2,2,0,0,0-.42.74,3.23,3.23,0,0,0-.15,1,3,3,0,0,0,.17,1.05,2.11,2.11,0,0,0,.43.72,1.7,1.7,0,0,0,.64.43,2.16,2.16,0,0,0,.77.14,2.85,2.85,0,0,0,1-.19,3,3,0,0,0,.91-.57H54Z"/>
    <path class="cls-4" d="M60.37,116.89H59.6V114H56.7v2.85h-.77v-5.82h.77v2.28h2.9v-2.28h.77Z"/>
    <path class="cls-4"
          d="M67.55,116.89h-1l-1.95-2.31H63.51v2.31h-.77v-5.82h1.63a4.73,4.73,0,0,1,.88.07,1.84,1.84,0,0,1,.63.24,1.47,1.47,0,0,1,.49.5,1.5,1.5,0,0,1,.18.77,1.71,1.71,0,0,1-.32,1.05,1.92,1.92,0,0,1-.87.64Zm-1.81-4.18a1.06,1.06,0,0,0-.09-.44.77.77,0,0,0-.29-.33,1.07,1.07,0,0,0-.4-.16,2.89,2.89,0,0,0-.54,0h-.91v2.2h.78a2.82,2.82,0,0,0,.64-.06,1,1,0,0,0,.72-.62A1.5,1.5,0,0,0,65.74,112.71Z"/>
    <path class="cls-4"
          d="M73.43,111.74a2.64,2.64,0,0,1,.54,1,4.05,4.05,0,0,1,.19,1.29,4,4,0,0,1-.19,1.29,2.64,2.64,0,0,1-.54.95,2.31,2.31,0,0,1-.85.59,3.2,3.2,0,0,1-2.23,0,2.3,2.3,0,0,1-.85-.59,2.64,2.64,0,0,1-.54-.95,4.44,4.44,0,0,1,0-2.56,2.72,2.72,0,0,1,.55-1,2.24,2.24,0,0,1,.85-.59,3,3,0,0,1,1.11-.2,2.92,2.92,0,0,1,1.12.21A2.34,2.34,0,0,1,73.43,111.74ZM73.36,114a2.67,2.67,0,0,0-.51-1.75,1.88,1.88,0,0,0-2.78,0,2.69,2.69,0,0,0-.51,1.75,2.64,2.64,0,0,0,.52,1.75,1.88,1.88,0,0,0,2.76,0A2.64,2.64,0,0,0,73.36,114Z"/>
    <path class="cls-4" d="M81.38,116.89H80.6v-5L79,115.29h-.46l-1.61-3.41v5H76.2v-5.82h1.05l1.55,3.24,1.5-3.24h1.07Z"/>
    <path class="cls-4" d="M88.32,116.89H87.5l-.57-1.62H84.41l-.57,1.62h-.79l2.12-5.82h1Zm-1.63-2.29-1-2.86-1,2.86Z"/>
    <path class="cls-4" d="M94.68,116.89h-1l-2.3-2.59-.58.62v2H90v-5.82h.77v3l2.82-3h.94L92,113.81Z"/>
    <path class="cls-4" d="M100.18,116.89H96.35v-5.82h3.83v.69H97.12v1.59h3.06V114H97.12v2.16h3.06Z"/>
    <path class="cls-4" d="M106.33,111.07l-2,3.27v2.55h-.77v-2.47l-2.05-3.35h.86l1.59,2.6,1.61-2.6Z"/>
    <polygon class="cls-4" points="104.64 52.42 77.95 67.82 77.88 37 104.64 21.61 104.64 52.42"/>
    <polygon class="cls-3" points="104.64 21.61 77.88 37 51.27 21.61 77.95 6.2 104.64 21.61"/>
    <polygon class="cls-5" points="77.95 67.82 51.27 52.42 51.27 21.61 77.88 37 77.95 67.82"/>
    <g class="cls-6">
        <line class="cls-7" x1="95.53" y1="80.71" x2="60.25" y2="115.99"/>
        <line class="cls-7" x1="95.53" y1="72.71" x2="60.25" y2="107.99"/>
        <line class="cls-7" x1="95.53" y1="64.71" x2="60.25" y2="99.99"/>
        <line class="cls-7" x1="95.53" y1="56.71" x2="60.25" y2="91.99"/>
        <line class="cls-7" x1="95.53" y1="48.71" x2="60.25" y2="83.99"/>
        <line class="cls-7" x1="95.53" y1="40.71" x2="60.25" y2="75.99"/>
        <line class="cls-7" x1="95.53" y1="32.71" x2="60.25" y2="67.99"/>
        <line class="cls-7" x1="95.53" y1="24.71" x2="60.25" y2="59.99"/>
        <line class="cls-7" x1="95.53" y1="16.71" x2="60.25" y2="51.99"/>
        <line class="cls-7" x1="95.53" y1="8.71" x2="60.25" y2="43.99"/>
        <line class="cls-7" x1="95.53" y1="0.71" x2="60.25" y2="35.99"/>
    </g>
</svg>